#!OML:ASF H:\Male1\Project 1\Capture day 1\Session 1\Male1.ASF
:FULLY-SPECIFIED
:DEGREES
648
root 7.30356 14.9979 -1.51922 91.2559 -90.8483 -93.5987
lowerback 6.26286 -0.459765 -1.44488
upperback 3.53693 -0.771096 0.353423
thorax 0.153729 -0.445571 1.21943
lowerneck -6.80863 3.90827 8.86699
upperneck 1.53776 4.61116 -4.52635
head 2.04926 2.25423 -2.86101
rclavicle -4.5969e-015 3.67752e-015
rhumerus -32.1541 20.9441 -89.1952
rradius 55.0361
rwrist -37.3606
rhand -22.6651 0.623353
rfingers 7.12502
rthumb 3.76648 -29.3231
lclavicle -4.5969e-015 3.67752e-015
lhumerus -9.96825 -18.6827 93.4033
lradius 27.26
lwrist -7.59908
lhand -12.2061 3.76953
lfingers 7.12502
lthumb 13.8584 33.2878
rfemur -23.7193 4.65161 22.4176
rtibia 38.0526
rfoot -26.5737 -19.1861
rtoes 10.4771
lfemur 7.57501 -4.58743 -26.5514
ltibia 30.2361
lfoot -23.9269 5.89716
ltoes -21.4654
649
root 7.44704 14.9822 -1.48977 91.4221 -91.329 -93.7657
lowerback 6.2802 -0.461707 -2.07361
upperback 3.66348 -0.811579 0.149692
thorax 0.282367 -0.477185 1.36435
lowerneck -6.57252 3.86254 8.93058
upperneck 1.17161 4.55616 -4.45486
head 1.87992 2.22452 -2.85377
rclavicle 1.13556e-014 -1.88845e-015
rhumerus -32.4338 20.016 -88.7354
rradius 54.944
rwrist -37.5361
rhand -23.1905 0.783716
rfingers 7.12502
rthumb 3.25917 -29.1711
lclavicle 1.13556e-014 -1.88845e-015
lhumerus -10.7638 -16.4796 92.901
lradius 27.3715
lwrist -6.68836
lhand -13.4621 4.24303
lfingers 7.12502
lthumb 12.6477 33.8401
rfemur -24.5454 4.19307 21.7749
rtibia 38.2322
rfoot -25.0512 -19.943
rtoes 5.83591
lfemur 8.13494 -5.53782 -27.7727
ltibia 28.4563
lfoot -24.6504 7.29632
ltoes -18.5096
650
root 7.5992 14.9676 -1.45538 92.1513 -91.9641 -94.7257
lowerback 6.56297 -0.50425 -2.76957
upperback 3.89629 -0.922736 -0.104668
thorax 0.378302 -0.549601 1.50139
lowerneck -6.33955 3.80276 8.99709
upperneck 0.780977 4.48775 -4.52944
head 1.70834 2.18449 -2.89789
rclavicle -6.57232e-015 1.39149e-015
rhumerus -32.5785 19.1393 -88.258
rradius 54.8183
rwrist -37.7417
rhand -23.7497 0.747256
rfingers 7.12502
rthumb 2.7191 -29.2152
lclavicle -6.57232e-015 1.39149e-015
lhumerus -11.4973 -14.5904 92.2897
lradius 27.4863
lwrist -5.43748
lhand -14.9701 4.54895
lfingers 7.12502
lthumb 11.1936 34.2303
rfemur -25.1068 3.65941 20.8989
rtibia 38.3926
rfoot -23.8264 -20.1446
rtoes 3.2668
lfemur 8.75425 -6.20957 -29.0987
ltibia 26.8299
lfoot -25.3364 8.66755
ltoes -15.6337
651
root 7.76056 14.9591 -1.43846 79.4563 -91.969 -82.1838
lowerback 6.78147 -0.406486 -3.12556
upperback 4.19245 -0.829067 -0.143866
thorax 0.564342 -0.520621 1.65528
lowerneck -6.29508 3.72247 8.9748
upperneck 0.442839 4.3781 -4.50296
head 1.57928 2.12376 -2.89024
rclavicle 4.70871e-015 4.5969e-015
rhumerus -32.4577 18.5174 -87.8488
rradius 54.609
rwrist -38.108
rhand -24.3237 0.857213
rfingers 7.12502
rthumb 2.16475 -29.1116
lclavicle 4.70871e-015 4.5969e-015
lhumerus -12.0105 -12.6688 91.5203
lradius 27.458
lwrist -4.57199
lhand -16.2248 4.69835
lfingers 7.12502
lthumb 9.98332 34.4416
rfemur -25.7282 4.45199 20.775
rtibia 38.4724
rfoot -23.4881 -20.3999
rtoes 4.20564
lfemur 9.04588 -6.08391 -29.367
ltibia 25.3766
lfoot -25.8035 9.65833
ltoes -12.9039
652
root 7.90941 14.9476 -1.41126 59.4439 -92.4269 -62.362
lowerback 7.06568 -0.182101 -3.51399
upperback 4.33783 -0.572617 -0.321309
thorax 0.547339 -0.403806 1.67662
lowerneck -6.14391 3.57381 8.8821
upperneck 0.286765 4.1898 -4.23697
head 1.47545 2.03237 -2.79171
rclavicle -1.93504e-015 5.24295e-015
rhumerus -32.6586 18.1028 -87.6797
rradius 54.4232
rwrist -38.5571
rhand -24.7871 0.8988
rfingers 7.12502
rthumb 1.71723 -29.074
lclavicle -1.93504e-015 5.24295e-015
lhumerus -12.9832 -10.3746 90.6999
lradius 27.4854
lwrist -4.49526
lhand -16.9354 4.5757
lfingers 7.12502
lthumb 9.29771 34.3507
rfemur -26.2485 5.11745 20.4566
rtibia 38.3983
rfoot -22.6961 -20.2503
rtoes 4.47538
lfemur 9.25637 -5.57027 -29.8155
ltibia 24.2921
lfoot -26.4107 10.415
ltoes -11.6545
653
root 8.07316 14.9395 -1.38246 58.9336 -93.0443 -62.0498
lowerback 7.51378 -0.149558 -4.23562
upperback 4.49047 -0.605856 -0.603835
thorax 0.466861 -0.437776 1.79524
lowerneck -5.87287 3.39228 8.7812
upperneck -0.0780267 3.96477 -3.90877
head 1.27886 1.91966 -2.67356
rclavicle 1.0548e-014 4.37326e-015
rhumerus -32.7673 17.717 -87.5582
rradius 54.3031
rwrist -38.8579
rhand -25.1753 0.809832
rfingers 7.12502
rthumb 1.34224 -29.1657
lclavicle 1.0548e-014 4.37326e-015
lhumerus -14.0446 -8.0354 89.7602
lradius 27.6908
lwrist -4.32303
lhand -17.4598 4.55454
lfingers 7.12502
lthumb 8.79167 34.3514
rfemur -26.7001 5.17902 19.6633
rtibia 38.2365
rfoot -21.9705 -19.8246
rtoes 4.87288
lfemur 9.28256 -5.50942 -30.5453
ltibia 23.4343
lfoot -26.7267 10.5374
ltoes -10.8327
654
root 8.25524 14.9464 -1.37558 58.0446 -92.7821 -61.2109
lowerback 8.01484 -0.275548 -4.54185
upperback 4.64666 -0.827331 -0.575836
thorax 0.37265 -0.560399 2.01584
lowerneck -5.70315 3.1302 8.36854
upperneck -0.532241 3.63887 -3.34175
head 1.0527 1.7551 -2.42001
rclavicle -1.70458e-014 -2.05742e-014
rhumerus -32.7128 17.398 -87.4462
rradius 54.1821
rwrist -38.9773
rhand -25.5083 0.754154
rfingers 7.12502
rthumb 1.02061 -29.2232
lclavicle -1.70458e-014 -2.05742e-014
lhumerus -14.9668 -6.17168 88.7771
lradius 27.8672
lwrist -3.45695
lhand -18.8059 4.99504
lfingers 7.12502
lthumb 7.49248 34.8423
rfemur -27.1607 5.86658 19.631
rtibia 37.9489
rfoot -21.9698 -20.0041
rtoes 5.75382
lfemur 8.91308 -5.97412 -30.2421
ltibia 22.8084
lfoot -26.7043 10.1259
ltoes -8.54473
655
root 8.39014 14.9421 -1.34408 40.7366 -93.4545 -44.3433
lowerback 8.166 -0.0058085 -4.6486
upperback 5.04545 -0.498137 -0.729694
thorax 0.680694 -0.419483 1.89072
lowerneck -5.82476 2.70505 7.69092
upperneck -0.723273 3.08745 -2.51264
head 0.943083 1.48378 -2.03733
rclavicle 1.71452e-015 -5.56597e-015
rhumerus -32.6763 17.1854 -87.436
rradius 53.9606
rwrist -38.9698
rhand -25.8253 0.818062
rfingers 7.12502
rthumb 0.714439 -29.1605
lclavicle 1.71452e-015 -5.56597e-015
lhumerus -15.9032 -4.71949 87.8053
lradius 27.906
lwrist -2.18426
lhand -20.0419 6.18647
lfingers 7.12502
lthumb 6.29932 36.0728
rfemur -27.1873 6.36312 19.5632
rtibia 37.6555
rfoot -20.74 -19.4978
rtoes 2.60566
lfemur 9.11011 -5.71119 -30.418
ltibia 22.3758
lfoot -27.0592 10.4824
ltoes -7.031
656
root 8.55181 14.9496 -1.32529 36.1497 -93.7435 -39.9162
lowerback 8.6319 0.0353081 -4.87587
upperback 5.20225 -0.498781 -0.871621
thorax 0.589228 -0.430446 1.87417
lowerneck -5.90796 2.14032 7.09401
upperneck -0.935027 2.35137 -1.69843
head 0.823999 1.1196 -1.68453
rclavicle -4.37326e-015 5.96354e-016
rhumerus -32.6961 16.9486 -87.5324
rradius 53.6276
rwrist -38.8842
rhand -25.9295 1.20343
rfingers 7.12502
rthumb 0.613832 -28.7754
lclavicle -4.37326e-015 5.96354e-016
lhumerus -16.9726 -3.20182 86.7775
lradius 27.7924
lwrist -1.24593
lhand -20.073 7.47194
lfingers 7.12502
lthumb 6.2693 37.3592
rfemur -27.4379 6.71889 19.301
rtibia 37.2578
rfoot -20.489 -19.1733
rtoes -1.37422
lfemur 8.67427 -5.65667 -30.4114
ltibia 22.2688
lfoot -26.9508 10.8744
ltoes -7.69094
